<svg width="320" height="107" viewBox="0 0 320 107" fill="none" xmlns="http://www.w3.org/2000/svg">
<g filter="url(#filter0_d_5_47)">
<path d="M17.617 30.449C18.018 26.834 18.315 24.372 18.505 23.06C19.118 19.001 20.09 16.09 21.422 14.324C22.754 12.559 24.931 11.676 27.954 11.676L28.239 15.196C26.611 15.196 25.48 15.672 24.846 16.623C24.212 17.574 23.799 18.927 23.609 20.682H28.397L27.382 30.449H17.617Z" fill="url(#paint0_linear_5_47)"/>
<path d="M4 30.449C4.401 26.834 4.698 24.372 4.888 23.06C5.501 19.001 6.474 16.09 7.805 14.324C9.137 12.559 11.314 11.676 14.337 11.676L14.622 15.196C12.994 15.196 11.863 15.672 11.229 16.623C10.595 17.574 10.182 18.927 9.992 20.682H14.78L13.765 30.449H4Z" fill="url(#paint1_linear_5_47)"/>
<path d="M301.882 79.673C301.481 83.288 301.184 85.75 300.994 87.062C300.381 91.121 299.409 94.033 298.077 95.798C296.745 97.563 294.568 98.446 291.545 98.446L291.26 94.926C292.888 94.926 294.019 94.45 294.653 93.499C295.287 92.547 295.7 91.195 295.89 89.44H291.102L292.117 79.673H301.882Z" fill="url(#paint2_linear_5_47)"/>
<path d="M315.499 79.673C315.098 83.288 314.801 85.75 314.611 87.062C313.998 91.121 313.025 94.033 311.694 95.798C310.362 97.563 308.185 98.446 305.162 98.446L304.877 94.926C306.505 94.926 307.636 94.45 308.27 93.499C308.904 92.547 309.317 91.195 309.507 89.44H304.719L305.734 79.673H315.499Z" fill="url(#paint3_linear_5_47)"/>
<path d="M33.764 18.452V87.47H119.263L146.87 18.452H33.764Z" fill="url(#paint4_linear_5_47)"/>
<path d="M49.054 69.825L56.286 33.686H60.819L65.573 54.153L69.669 33.686H75.118L67.886 69.825H63.57L58.939 48.311L54.634 69.825H49.054Z" fill="white"/>
<path d="M73.291 69.825L80.523 33.686H95.65L94.721 38.329H86.176L84.1 48.704H90.857L89.928 53.347H83.171L80.785 65.27H89.437L88.525 69.826L73.291 69.825Z" fill="white"/>
<path d="M96.243 69.825L98.309 33.686H103.846L102.147 56.987L110.668 33.686H115.092L114.37 57.008L122.002 33.686H127.43L115.032 69.825H109.779L110.532 45.696L101.649 69.825H96.243Z" fill="white"/>
<path d="M138.232 69.825L152.81 33.686H159.675L159.767 69.825H153.642L153.861 61.433H147.605L144.444 69.825H138.232ZM149.161 57.139H154.001L154.552 42.295L149.161 57.139Z" fill="url(#paint5_linear_5_47)"/>
<path d="M163.32 69.825L170.552 33.686H178.834C180.737 33.686 182.341 33.842 183.645 34.155C184.948 34.468 186.031 34.99 186.895 35.724C187.757 36.458 188.314 37.453 188.564 38.71C188.814 39.967 188.757 41.504 188.394 43.32C187.94 45.587 187.231 47.44 186.267 48.878C185.304 50.316 183.979 51.363 182.293 52.017L183.743 69.825H177.138L176.124 53.325H173.204L169.901 69.825H163.32ZM174.046 49.118H175.637C177.584 49.118 179.051 48.704 180.038 47.875C181.024 47.047 181.718 45.63 182.12 43.625C182.507 41.692 182.427 40.308 181.883 39.473C181.337 38.638 180.113 38.22 178.21 38.22H176.227L174.046 49.118Z" fill="url(#paint6_linear_5_47)"/>
<path d="M188.08 69.825L195.312 33.686H203.594C205.498 33.686 207.102 33.842 208.405 34.155C209.709 34.468 210.792 34.99 211.655 35.724C212.518 36.458 213.075 37.453 213.324 38.71C213.574 39.967 213.517 41.504 213.154 43.32C212.7 45.587 211.992 47.44 211.028 48.878C210.064 50.316 208.74 51.363 207.054 52.017L208.503 69.825H201.898L200.884 53.325H197.963L194.661 69.825H188.08ZM198.808 49.118H200.398C202.345 49.118 203.812 48.704 204.799 47.875C205.785 47.047 206.48 45.63 206.881 43.625C207.268 41.692 207.189 40.308 206.644 39.473C206.099 38.638 204.875 38.22 202.972 38.22H200.989L198.808 49.118Z" fill="url(#paint7_linear_5_47)"/>
<path d="M213.038 69.825L220.27 33.686H226.765L219.533 69.825H213.038Z" fill="url(#paint8_linear_5_47)"/>
<path d="M230.736 69.825L230.645 33.686H236.486L236.204 58.839L245.728 33.686H251.7L237.1 69.825H230.736Z" fill="url(#paint9_linear_5_47)"/>
<path d="M245.122 69.825L259.7 33.686H266.565L266.657 69.825H260.532L260.751 61.433H254.495L251.335 69.825H245.122ZM256.053 57.139H260.892L261.443 42.295L256.053 57.139Z" fill="url(#paint10_linear_5_47)"/>
<path d="M270.21 69.825L277.442 33.686H284.025L277.704 65.27H286.357L285.446 69.826L270.21 69.825Z" fill="url(#paint11_linear_5_47)"/>
<path d="M205.197 85.692C204.83 85.174 204.734 84.373 204.909 83.287L206.761 82.984C206.649 83.632 206.644 84.11 206.746 84.417C206.848 84.725 207.063 84.878 207.391 84.878C207.635 84.878 207.828 84.8 207.969 84.644C208.109 84.488 208.203 84.289 208.252 84.044C208.333 83.641 208.311 83.298 208.187 83.016C208.063 82.734 207.84 82.425 207.52 82.088L206.645 81.166C206.294 80.813 206.048 80.434 205.907 80.03C205.764 79.626 205.75 79.142 205.863 78.578C206.03 77.745 206.404 77.103 206.987 76.653C207.569 76.203 208.294 75.978 209.16 75.978C210.086 75.978 210.677 76.245 210.93 76.779C211.186 77.314 211.255 77.993 211.141 78.818L209.284 79.083C209.374 78.545 209.393 78.147 209.339 77.89C209.286 77.634 209.103 77.505 208.792 77.505C208.563 77.505 208.37 77.591 208.21 77.763C208.049 77.936 207.944 78.14 207.897 78.376C207.83 78.712 207.846 78.996 207.948 79.228C208.049 79.46 208.231 79.714 208.495 79.992L209.349 80.901C209.751 81.33 210.044 81.782 210.227 82.258C210.41 82.734 210.437 83.291 210.308 83.93C210.21 84.418 210.014 84.854 209.719 85.237C209.423 85.62 209.054 85.921 208.61 86.139C208.168 86.357 207.684 86.467 207.163 86.467C206.22 86.468 205.565 86.21 205.197 85.692Z" fill="black"/>
<path d="M214.892 76.105H216.974L216.135 80.296H217.941L218.779 76.105H220.862L218.816 86.33H216.733L217.64 81.798H215.834L214.927 86.33H212.845L214.892 76.105Z" fill="black"/>
<path d="M222.959 85.616C222.609 85.048 222.546 84.213 222.767 83.11L223.53 79.298C223.751 78.196 224.147 77.367 224.722 76.812C225.295 76.257 226.124 75.979 227.21 75.979C228.287 75.979 229.003 76.259 229.358 76.818C229.713 77.378 229.781 78.205 229.562 79.298L228.796 83.123C228.577 84.217 228.178 85.048 227.597 85.616C227.016 86.184 226.188 86.468 225.11 86.468C224.026 86.468 223.308 86.185 222.959 85.616ZM226.195 84.619C226.365 84.379 226.492 84.049 226.576 83.628L227.545 78.794C227.629 78.373 227.633 78.047 227.557 77.815C227.481 77.584 227.267 77.468 226.914 77.468C226.561 77.468 226.3 77.584 226.132 77.815C225.963 78.046 225.837 78.373 225.753 78.794L224.785 83.628C224.699 84.058 224.691 84.39 224.762 84.626C224.832 84.861 225.049 84.979 225.411 84.979C225.763 84.979 226.025 84.859 226.195 84.619Z" fill="black"/>
<path d="M233.484 76.105H236.728C238.496 76.105 239.183 77.085 238.79 79.046C238.583 80.081 238.183 80.816 237.591 81.249C237 81.682 236.254 81.899 235.354 81.899H234.394L233.507 86.33H231.438L233.484 76.105ZM235.433 80.435C235.878 80.435 236.199 80.33 236.392 80.12C236.585 79.91 236.735 79.539 236.841 79.009C236.909 78.664 236.939 78.393 236.928 78.195C236.917 77.997 236.841 77.843 236.698 77.734C236.555 77.625 236.321 77.57 235.993 77.57H235.261L234.687 80.435H235.433Z" fill="black"/>
<path d="M247.382 76.105H248.833L250.041 81.419L251.105 76.105H252.835L250.788 86.33H249.387L248.247 80.675L247.114 86.33H245.335L247.382 76.105Z" fill="black"/>
<path d="M254.907 85.616C254.557 85.048 254.493 84.213 254.714 83.11L255.478 79.298C255.698 78.196 256.095 77.367 256.669 76.812C257.242 76.257 258.072 75.979 259.157 75.979C260.235 75.979 260.951 76.259 261.305 76.818C261.66 77.378 261.729 78.205 261.51 79.298L260.744 83.123C260.525 84.217 260.125 85.048 259.545 85.616C258.964 86.184 258.135 86.468 257.058 86.468C255.974 86.468 255.256 86.185 254.907 85.616ZM258.142 84.619C258.312 84.379 258.44 84.049 258.524 83.628L259.492 78.794C259.576 78.373 259.58 78.047 259.505 77.815C259.429 77.584 259.215 77.468 258.861 77.468C258.507 77.468 258.246 77.584 258.078 77.815C257.91 78.046 257.783 78.373 257.699 78.794L256.732 83.628C256.646 84.058 256.638 84.39 256.709 84.626C256.779 84.861 256.996 84.979 257.357 84.979C257.71 84.979 257.972 84.859 258.142 84.619Z" fill="black"/>
<path d="M265.027 76.105H266.782L266.251 82.353L268.395 76.118H269.796L269.487 82.328L271.452 76.105H273.181L269.823 86.33H268.043L268.356 79.854L266.113 86.33H264.307L265.027 76.105Z" fill="black"/>
<path d="M279.694 83.552L282.527 81.759L280.406 79.992L280.745 78.301L284.055 81.002L283.748 82.529L279.358 85.23L279.694 83.552Z" fill="black"/>
<path d="M291.499 25.719H164.166C163.89 25.719 163.666 25.495 163.666 25.219C163.666 24.943 163.89 24.719 164.166 24.719H291.499C291.775 24.719 291.999 24.943 291.999 25.219C291.999 25.496 291.776 25.719 291.499 25.719Z" fill="black"/>
<path d="M175.499 80.053H129.832C129.556 80.053 129.332 79.829 129.332 79.553C129.332 79.277 129.556 79.053 129.832 79.053H175.499C175.775 79.053 175.999 79.277 175.999 79.553C175.999 79.829 175.776 80.053 175.499 80.053Z" fill="black"/>
<path d="M116.166 94.719H51.166C50.89 94.719 50.666 94.495 50.666 94.219C50.666 93.943 50.89 93.719 51.166 93.719H116.166C116.442 93.719 116.666 93.943 116.666 94.219C116.666 94.495 116.443 94.719 116.166 94.719Z" fill="black"/>
<path d="M184.749 10.219L181.051 9.86L178.614 12.664L177.813 9.036L174.393 7.584L177.596 5.701L177.92 2L180.7 4.464L184.32 3.629L182.836 7.035L184.749 10.219Z" fill="url(#paint12_linear_5_47)"/>
<path d="M239.249 12.719L238.134 10.505L235.683 10.128L237.444 8.383L237.045 5.936L239.249 7.072L241.453 5.936L241.054 8.383L242.816 10.128L240.365 10.505L239.249 12.719Z" fill="url(#paint13_linear_5_47)"/>
<path d="M19.749 83.219L16.047 81.382L12.403 83.331L13.007 79.242L10.026 76.379L14.102 75.689L15.904 71.97L17.819 75.633L21.913 76.198L19.021 79.151L19.749 83.219Z" fill="url(#paint14_linear_5_47)"/>
<path d="M166.249 90.719L164.402 91.094L163.636 92.817L162.708 91.176L160.834 90.979L162.108 89.59L161.715 87.746L163.43 88.529L165.062 87.586L164.848 89.459L166.249 90.719Z" fill="url(#paint15_linear_5_47)"/>
<path d="M276.499 99.469L273.169 98.37L270.342 100.445L270.358 96.938L267.511 94.89L270.852 93.822L271.92 90.481L273.967 93.328L277.474 93.312L275.4 96.139L276.499 99.469Z" fill="url(#paint16_linear_5_47)"/>
<path d="M305.249 52.219L306.202 49.333L304.404 46.883L307.443 46.897L309.218 44.43L310.144 47.325L313.039 48.25L310.572 50.025L310.586 53.065L308.135 51.267L305.249 52.219Z" fill="url(#paint17_linear_5_47)"/>
<path d="M103.114 10.375L99.532 10.069L97.204 12.81L96.388 9.308L93.062 7.942L96.141 6.083L96.412 2.498L99.131 4.851L102.625 4.002L101.227 7.314L103.114 10.375Z" fill="black"/>
<path d="M189.499 90.719L186.736 89.643L184.256 91.269L184.426 88.309L182.113 86.453L184.981 85.699L186.031 82.926L187.634 85.421L190.596 85.563L188.719 87.858L189.499 90.719Z" fill="black"/>
<path d="M21.499 53.886L19.627 54.089L18.706 55.731L17.934 54.013L16.087 53.645L17.483 52.38L17.263 50.51L18.897 51.446L20.608 50.659L20.222 52.502L21.499 53.886Z" fill="black"/>
</g>
<defs>
<filter id="filter0_d_5_47" x="0" y="0" width="319.499" height="106.445" filterUnits="userSpaceOnUse" color-interpolation-filters="sRGB">
<feFlood flood-opacity="0" result="BackgroundImageFix"/>
<feColorMatrix in="SourceAlpha" type="matrix" values="0 0 0 0 0 0 0 0 0 0 0 0 0 0 0 0 0 0 127 0" result="hardAlpha"/>
<feOffset dy="2"/>
<feGaussianBlur stdDeviation="2"/>
<feComposite in2="hardAlpha" operator="out"/>
<feColorMatrix type="matrix" values="0 0 0 0 0 0 0 0 0 0 0 0 0 0 0 0 0 0 0.25 0"/>
<feBlend mode="normal" in2="BackgroundImageFix" result="effect1_dropShadow_5_47"/>
<feBlend mode="normal" in="SourceGraphic" in2="effect1_dropShadow_5_47" result="shape"/>
</filter>
<linearGradient id="paint0_linear_5_47" x1="17.6168" y1="21.0628" x2="28.3981" y2="21.0628" gradientUnits="userSpaceOnUse">
<stop offset="0.4372" stop-color="#EF4444"/>
<stop offset="0.6586" stop-color="#F97316"/>
</linearGradient>
<linearGradient id="paint1_linear_5_47" x1="3.9999" y1="21.0628" x2="14.7812" y2="21.0628" gradientUnits="userSpaceOnUse">
<stop offset="0.4372" stop-color="#EF4444"/>
<stop offset="1" stop-color="#F97316"/>
</linearGradient>
<linearGradient id="paint2_linear_5_47" x1="291.101" y1="89.059" x2="301.882" y2="89.059" gradientUnits="userSpaceOnUse">
<stop offset="0.4372" stop-color="#EF4444"/>
<stop offset="1" stop-color="#F97316"/>
</linearGradient>
<linearGradient id="paint3_linear_5_47" x1="304.718" y1="89.059" x2="315.499" y2="89.059" gradientUnits="userSpaceOnUse">
<stop offset="0.4372" stop-color="#EF4444"/>
<stop offset="1" stop-color="#F97316"/>
</linearGradient>
<linearGradient id="paint4_linear_5_47" x1="94.9802" y1="55.0031" x2="126.963" y2="69.01" gradientUnits="userSpaceOnUse">
<stop stop-color="#EF4444"/>
<stop offset="1" stop-color="#F97316"/>
</linearGradient>
<linearGradient id="paint5_linear_5_47" x1="138.232" y1="51.7555" x2="159.767" y2="51.7555" gradientUnits="userSpaceOnUse">
<stop stop-color="#EF4444"/>
<stop offset="0.269" stop-color="#F97316"/>
</linearGradient>
<linearGradient id="paint6_linear_5_47" x1="163.32" y1="51.7555" x2="188.717" y2="51.7555" gradientUnits="userSpaceOnUse">
<stop stop-color="#EF4444"/>
<stop offset="0.269" stop-color="#F97316"/>
</linearGradient>
<linearGradient id="paint7_linear_5_47" x1="188.08" y1="51.7555" x2="213.477" y2="51.7555" gradientUnits="userSpaceOnUse">
<stop stop-color="#EF4444"/>
<stop offset="0.269" stop-color="#F97316"/>
</linearGradient>
<linearGradient id="paint8_linear_5_47" x1="213.038" y1="51.7555" x2="226.765" y2="51.7555" gradientUnits="userSpaceOnUse">
<stop stop-color="#EF4444"/>
<stop offset="0.269" stop-color="#F97316"/>
</linearGradient>
<linearGradient id="paint9_linear_5_47" x1="230.645" y1="51.7555" x2="251.7" y2="51.7555" gradientUnits="userSpaceOnUse">
<stop stop-color="#EF4444"/>
<stop offset="0.269" stop-color="#F97316"/>
</linearGradient>
<linearGradient id="paint10_linear_5_47" x1="245.122" y1="51.7555" x2="266.657" y2="51.7555" gradientUnits="userSpaceOnUse">
<stop stop-color="#EF4444"/>
<stop offset="0.269" stop-color="#F97316"/>
</linearGradient>
<linearGradient id="paint11_linear_5_47" x1="270.21" y1="51.756" x2="286.357" y2="51.756" gradientUnits="userSpaceOnUse">
<stop stop-color="#EF4444"/>
<stop offset="0.269" stop-color="#F97316"/>
</linearGradient>
<linearGradient id="paint12_linear_5_47" x1="174.393" y1="7.332" x2="184.749" y2="7.332" gradientUnits="userSpaceOnUse">
<stop stop-color="#EF4444"/>
<stop offset="0.269" stop-color="#F97316"/>
</linearGradient>
<linearGradient id="paint13_linear_5_47" x1="235.683" y1="9.3275" x2="242.816" y2="9.3275" gradientUnits="userSpaceOnUse">
<stop stop-color="#EF4444"/>
<stop offset="0.269" stop-color="#F97316"/>
</linearGradient>
<linearGradient id="paint14_linear_5_47" x1="10.026" y1="77.6505" x2="21.913" y2="77.6505" gradientUnits="userSpaceOnUse">
<stop stop-color="#EF4444"/>
<stop offset="0.269" stop-color="#F97316"/>
</linearGradient>
<linearGradient id="paint15_linear_5_47" x1="160.834" y1="90.2015" x2="166.249" y2="90.2015" gradientUnits="userSpaceOnUse">
<stop stop-color="#EF4444"/>
<stop offset="0.269" stop-color="#F97316"/>
</linearGradient>
<linearGradient id="paint16_linear_5_47" x1="267.511" y1="95.463" x2="277.474" y2="95.463" gradientUnits="userSpaceOnUse">
<stop stop-color="#EF4444"/>
<stop offset="0.269" stop-color="#F97316"/>
</linearGradient>
<linearGradient id="paint17_linear_5_47" x1="304.404" y1="48.7475" x2="313.039" y2="48.7475" gradientUnits="userSpaceOnUse">
<stop stop-color="#EF4444"/>
<stop offset="0.269" stop-color="#F97316"/>
</linearGradient>
</defs>
</svg>
