<svg width="320" height="107" viewBox="0 0 320 107" fill="none" xmlns="http://www.w3.org/2000/svg">
<g filter="url(#filter0_d_4_2)">
<path d="M17.617 28.449C18.018 24.834 18.315 22.372 18.505 21.06C19.118 17.001 20.09 14.09 21.422 12.324C22.754 10.559 24.931 9.67599 27.954 9.67599L28.239 13.196C26.611 13.196 25.48 13.672 24.846 14.623C24.212 15.574 23.799 16.927 23.609 18.682H28.397L27.382 28.449H17.617Z" fill="url(#paint0_linear_4_2)"/>
<path d="M4 28.449C4.401 24.834 4.698 22.372 4.888 21.06C5.501 17.001 6.474 14.09 7.805 12.324C9.137 10.559 11.314 9.67599 14.337 9.67599L14.622 13.196C12.994 13.196 11.863 13.672 11.229 14.623C10.595 15.574 10.182 16.927 9.992 18.682H14.78L13.765 28.449H4Z" fill="url(#paint1_linear_4_2)"/>
<path d="M301.882 77.673C301.481 81.288 301.184 83.75 300.994 85.062C300.381 89.121 299.409 92.033 298.077 93.798C296.745 95.563 294.568 96.446 291.545 96.446L291.26 92.926C292.888 92.926 294.019 92.45 294.653 91.499C295.287 90.547 295.7 89.195 295.89 87.44H291.102L292.117 77.673H301.882Z" fill="url(#paint2_linear_4_2)"/>
<path d="M315.499 77.673C315.098 81.288 314.801 83.75 314.611 85.062C313.998 89.121 313.025 92.033 311.694 93.798C310.362 95.563 308.185 96.446 305.162 96.446L304.877 92.926C306.505 92.926 307.636 92.45 308.27 91.499C308.904 90.547 309.317 89.195 309.507 87.44H304.719L305.734 77.673H315.499Z" fill="url(#paint3_linear_4_2)"/>
<path d="M33.764 16.452V85.47H119.263L146.87 16.452H33.764Z" fill="url(#paint4_linear_4_2)"/>
<path d="M49.054 67.825L56.286 31.686H60.819L65.573 52.153L69.669 31.686H75.118L67.886 67.825H63.57L58.939 46.311L54.634 67.825H49.054Z" fill="white"/>
<path d="M73.291 67.825L80.523 31.686H95.65L94.721 36.329H86.176L84.1 46.704H90.857L89.928 51.347H83.171L80.785 63.27H89.437L88.525 67.826L73.291 67.825Z" fill="white"/>
<path d="M96.243 67.825L98.309 31.686H103.846L102.147 54.987L110.668 31.686H115.092L114.37 55.008L122.002 31.686H127.43L115.032 67.825H109.779L110.532 43.696L101.649 67.825H96.243Z" fill="white"/>
<path d="M138.232 67.825L152.81 31.686H159.675L159.767 67.825H153.642L153.861 59.433H147.605L144.444 67.825H138.232ZM149.161 55.139H154.001L154.552 40.295L149.161 55.139Z" fill="#06B6D4"/>
<path d="M163.32 67.825L170.552 31.686H178.834C180.737 31.686 182.341 31.842 183.645 32.155C184.948 32.468 186.031 32.99 186.895 33.724C187.757 34.458 188.314 35.453 188.564 36.71C188.814 37.967 188.757 39.504 188.394 41.32C187.94 43.587 187.231 45.44 186.267 46.878C185.304 48.316 183.979 49.363 182.293 50.017L183.743 67.825H177.138L176.124 51.325H173.204L169.901 67.825H163.32ZM174.046 47.118H175.637C177.584 47.118 179.051 46.704 180.038 45.875C181.024 45.047 181.718 43.63 182.12 41.625C182.507 39.692 182.427 38.308 181.883 37.473C181.337 36.638 180.113 36.22 178.21 36.22H176.227L174.046 47.118Z" fill="#06B6D4"/>
<path d="M188.08 67.825L195.312 31.686H203.594C205.498 31.686 207.102 31.842 208.405 32.155C209.709 32.468 210.792 32.99 211.655 33.724C212.518 34.458 213.075 35.453 213.324 36.71C213.574 37.967 213.517 39.504 213.154 41.32C212.7 43.587 211.992 45.44 211.028 46.878C210.064 48.316 208.74 49.363 207.054 50.017L208.503 67.825H201.898L200.884 51.325H197.963L194.661 67.825H188.08ZM198.808 47.118H200.398C202.345 47.118 203.812 46.704 204.799 45.875C205.785 45.047 206.48 43.63 206.881 41.625C207.268 39.692 207.189 38.308 206.644 37.473C206.099 36.638 204.875 36.22 202.972 36.22H200.989L198.808 47.118Z" fill="#06B6D4"/>
<path d="M213.038 67.825L220.27 31.686H226.765L219.533 67.825H213.038Z" fill="#06B6D4"/>
<path d="M230.736 67.825L230.645 31.686H236.486L236.204 56.839L245.728 31.686H251.7L237.1 67.825H230.736Z" fill="#06B6D4"/>
<path d="M245.122 67.825L259.7 31.686H266.565L266.657 67.825H260.532L260.751 59.433H254.495L251.335 67.825H245.122ZM256.053 55.139H260.892L261.443 40.295L256.053 55.139Z" fill="#06B6D4"/>
<path d="M270.21 67.825L277.442 31.686H284.025L277.704 63.27H286.357L285.446 67.826L270.21 67.825Z" fill="#06B6D4"/>
<path d="M205.197 83.692C204.83 83.174 204.734 82.373 204.909 81.287L206.761 80.984C206.649 81.632 206.644 82.11 206.746 82.417C206.848 82.725 207.063 82.878 207.391 82.878C207.635 82.878 207.828 82.8 207.969 82.644C208.109 82.488 208.203 82.289 208.252 82.044C208.333 81.641 208.311 81.298 208.187 81.016C208.063 80.734 207.84 80.425 207.52 80.088L206.645 79.166C206.294 78.813 206.048 78.434 205.907 78.03C205.764 77.626 205.75 77.142 205.863 76.578C206.03 75.745 206.404 75.103 206.987 74.653C207.569 74.203 208.294 73.978 209.16 73.978C210.086 73.978 210.677 74.245 210.93 74.779C211.186 75.314 211.255 75.993 211.141 76.818L209.284 77.083C209.374 76.545 209.393 76.147 209.339 75.89C209.286 75.634 209.103 75.505 208.792 75.505C208.563 75.505 208.37 75.591 208.21 75.763C208.049 75.936 207.944 76.14 207.897 76.376C207.83 76.712 207.846 76.996 207.948 77.228C208.049 77.46 208.231 77.714 208.495 77.992L209.349 78.901C209.751 79.33 210.044 79.782 210.227 80.258C210.41 80.734 210.437 81.291 210.308 81.93C210.21 82.418 210.014 82.854 209.719 83.237C209.423 83.62 209.054 83.921 208.61 84.139C208.168 84.357 207.684 84.467 207.163 84.467C206.22 84.468 205.565 84.21 205.197 83.692Z" fill="black"/>
<path d="M214.892 74.105H216.974L216.135 78.296H217.941L218.779 74.105H220.862L218.816 84.33H216.733L217.64 79.798H215.834L214.927 84.33H212.845L214.892 74.105Z" fill="black"/>
<path d="M222.959 83.616C222.609 83.048 222.546 82.213 222.767 81.11L223.53 77.298C223.751 76.196 224.147 75.367 224.722 74.812C225.295 74.257 226.124 73.979 227.21 73.979C228.287 73.979 229.003 74.259 229.358 74.818C229.713 75.378 229.781 76.205 229.562 77.298L228.796 81.123C228.577 82.217 228.178 83.048 227.597 83.616C227.016 84.184 226.188 84.468 225.11 84.468C224.026 84.468 223.308 84.185 222.959 83.616ZM226.195 82.619C226.365 82.379 226.492 82.049 226.576 81.628L227.545 76.794C227.629 76.373 227.633 76.047 227.557 75.815C227.481 75.584 227.267 75.468 226.914 75.468C226.561 75.468 226.3 75.584 226.132 75.815C225.963 76.046 225.837 76.373 225.753 76.794L224.785 81.628C224.699 82.058 224.691 82.39 224.762 82.626C224.832 82.861 225.049 82.979 225.411 82.979C225.763 82.979 226.025 82.859 226.195 82.619Z" fill="black"/>
<path d="M233.484 74.105H236.728C238.496 74.105 239.183 75.085 238.79 77.046C238.583 78.081 238.183 78.816 237.591 79.249C237 79.682 236.254 79.899 235.354 79.899H234.394L233.507 84.33H231.438L233.484 74.105ZM235.433 78.435C235.878 78.435 236.199 78.33 236.392 78.12C236.585 77.91 236.735 77.539 236.841 77.009C236.909 76.664 236.939 76.393 236.928 76.195C236.917 75.997 236.841 75.843 236.698 75.734C236.555 75.625 236.321 75.57 235.993 75.57H235.261L234.687 78.435H235.433Z" fill="black"/>
<path d="M247.382 74.105H248.833L250.041 79.419L251.105 74.105H252.835L250.788 84.33H249.387L248.247 78.675L247.114 84.33H245.335L247.382 74.105Z" fill="black"/>
<path d="M254.907 83.616C254.557 83.048 254.493 82.213 254.714 81.11L255.478 77.298C255.698 76.196 256.095 75.367 256.669 74.812C257.242 74.257 258.072 73.979 259.157 73.979C260.235 73.979 260.951 74.259 261.305 74.818C261.66 75.378 261.729 76.205 261.51 77.298L260.744 81.123C260.525 82.217 260.125 83.048 259.545 83.616C258.964 84.184 258.135 84.468 257.058 84.468C255.974 84.468 255.256 84.185 254.907 83.616ZM258.142 82.619C258.312 82.379 258.44 82.049 258.524 81.628L259.492 76.794C259.576 76.373 259.58 76.047 259.505 75.815C259.429 75.584 259.215 75.468 258.861 75.468C258.507 75.468 258.246 75.584 258.078 75.815C257.91 76.046 257.783 76.373 257.699 76.794L256.732 81.628C256.646 82.058 256.638 82.39 256.709 82.626C256.779 82.861 256.996 82.979 257.357 82.979C257.71 82.979 257.972 82.859 258.142 82.619Z" fill="black"/>
<path d="M265.027 74.105H266.782L266.251 80.353L268.395 74.118H269.796L269.487 80.328L271.452 74.105H273.181L269.823 84.33H268.043L268.356 77.854L266.113 84.33H264.307L265.027 74.105Z" fill="black"/>
<path d="M279.694 81.552L282.527 79.759L280.406 77.992L280.745 76.301L284.055 79.002L283.748 80.529L279.358 83.23L279.694 81.552Z" fill="black"/>
<path d="M291.499 23.719H164.166C163.89 23.719 163.666 23.495 163.666 23.219C163.666 22.943 163.89 22.719 164.166 22.719H291.499C291.775 22.719 291.999 22.943 291.999 23.219C291.999 23.496 291.776 23.719 291.499 23.719Z" fill="black"/>
<path d="M175.499 78.053H129.832C129.556 78.053 129.332 77.829 129.332 77.553C129.332 77.277 129.556 77.053 129.832 77.053H175.499C175.775 77.053 175.999 77.277 175.999 77.553C175.999 77.829 175.776 78.053 175.499 78.053Z" fill="black"/>
<path d="M116.166 92.719H51.166C50.89 92.719 50.666 92.495 50.666 92.219C50.666 91.943 50.89 91.719 51.166 91.719H116.166C116.442 91.719 116.666 91.943 116.666 92.219C116.666 92.495 116.443 92.719 116.166 92.719Z" fill="black"/>
<path d="M184.749 8.219L181.051 7.86L178.614 10.664L177.813 7.036L174.393 5.584L177.596 3.701L177.92 0L180.7 2.464L184.32 1.629L182.836 5.035L184.749 8.219Z" fill="#06B6D4"/>
<path d="M239.249 10.719L238.134 8.505L235.683 8.128L237.444 6.383L237.045 3.936L239.249 5.072L241.453 3.936L241.054 6.383L242.816 8.128L240.365 8.505L239.249 10.719Z" fill="#06B6D4"/>
<path d="M19.749 81.219L16.047 79.382L12.403 81.331L13.007 77.242L10.026 74.379L14.102 73.689L15.904 69.97L17.819 73.633L21.913 74.198L19.021 77.151L19.749 81.219Z" fill="#06B6D4"/>
<path d="M166.249 88.719L164.402 89.094L163.636 90.817L162.708 89.176L160.834 88.979L162.108 87.59L161.715 85.746L163.43 86.529L165.062 85.586L164.848 87.459L166.249 88.719Z" fill="#06B6D4"/>
<path d="M276.499 97.469L273.169 96.37L270.342 98.445L270.358 94.938L267.511 92.89L270.852 91.822L271.92 88.481L273.967 91.328L277.474 91.312L275.4 94.139L276.499 97.469Z" fill="#06B6D4"/>
<path d="M305.249 50.219L306.202 47.333L304.404 44.883L307.443 44.897L309.218 42.43L310.144 45.325L313.039 46.25L310.572 48.025L310.586 51.065L308.135 49.267L305.249 50.219Z" fill="#06B6D4"/>
<path d="M103.114 8.37498L99.532 8.06898L97.204 10.81L96.388 7.30798L93.062 5.94199L96.141 4.08298L96.412 0.497986L99.131 2.85098L102.625 2.00198L101.227 5.31399L103.114 8.37498Z" fill="black"/>
<path d="M189.499 88.719L186.736 87.643L184.256 89.269L184.426 86.309L182.113 84.453L184.981 83.699L186.031 80.926L187.634 83.421L190.596 83.563L188.719 85.858L189.499 88.719Z" fill="black"/>
<path d="M21.499 51.886L19.627 52.089L18.706 53.731L17.934 52.013L16.087 51.645L17.483 50.38L17.263 48.51L18.897 49.446L20.608 48.659L20.222 50.502L21.499 51.886Z" fill="black"/>
</g>
<defs>
<filter id="filter0_d_4_2" x="0" y="0" width="319.499" height="106.445" filterUnits="userSpaceOnUse" color-interpolation-filters="sRGB">
<feFlood flood-opacity="0" result="BackgroundImageFix"/>
<feColorMatrix in="SourceAlpha" type="matrix" values="0 0 0 0 0 0 0 0 0 0 0 0 0 0 0 0 0 0 127 0" result="hardAlpha"/>
<feOffset dy="4"/>
<feGaussianBlur stdDeviation="2"/>
<feComposite in2="hardAlpha" operator="out"/>
<feColorMatrix type="matrix" values="0 0 0 0 0 0 0 0 0 0 0 0 0 0 0 0 0 0 0.25 0"/>
<feBlend mode="normal" in2="BackgroundImageFix" result="effect1_dropShadow_4_2"/>
<feBlend mode="normal" in="SourceGraphic" in2="effect1_dropShadow_4_2" result="shape"/>
</filter>
<linearGradient id="paint0_linear_4_2" x1="17.6168" y1="19.0628" x2="28.3981" y2="19.0628" gradientUnits="userSpaceOnUse">
<stop offset="0.4372" stop-color="#06B6D4"/>
<stop offset="0.6586" stop-color="#06B6D4"/>
<stop offset="0.8158" stop-color="#06B6D4"/>
<stop offset="0.9525" stop-color="#06B6D4"/>
<stop offset="1" stop-color="#06B6D4"/>
</linearGradient>
<linearGradient id="paint1_linear_4_2" x1="3.9999" y1="19.0628" x2="14.7812" y2="19.0628" gradientUnits="userSpaceOnUse">
<stop offset="0.4372" stop-color="#06B6D4"/>
<stop offset="0.6586" stop-color="#06B6D4"/>
<stop offset="0.8158" stop-color="#06B6D4"/>
<stop offset="0.9525" stop-color="#06B6D4"/>
<stop offset="1" stop-color="#06B6D4"/>
</linearGradient>
<linearGradient id="paint2_linear_4_2" x1="291.101" y1="87.059" x2="301.882" y2="87.059" gradientUnits="userSpaceOnUse">
<stop offset="0.4372" stop-color="#06B6D4"/>
<stop offset="0.6586" stop-color="#06B6D4"/>
<stop offset="0.8158" stop-color="#06B6D4"/>
<stop offset="0.9525" stop-color="#06B6D4"/>
<stop offset="1" stop-color="#06B6D4"/>
</linearGradient>
<linearGradient id="paint3_linear_4_2" x1="304.718" y1="87.059" x2="315.499" y2="87.059" gradientUnits="userSpaceOnUse">
<stop offset="0.4372" stop-color="#06B6D4"/>
<stop offset="0.6586" stop-color="#06B6D4"/>
<stop offset="0.8158" stop-color="#06B6D4"/>
<stop offset="0.9525" stop-color="#06B6D4"/>
<stop offset="1" stop-color="#06B6D4"/>
</linearGradient>
<linearGradient id="paint4_linear_4_2" x1="94.9802" y1="53.0031" x2="126.963" y2="67.01" gradientUnits="userSpaceOnUse">
<stop offset="0.4372" stop-color="#06B6D4"/>
<stop offset="0.6586" stop-color="#06B6D4"/>
<stop offset="0.8158" stop-color="#06B6D4"/>
<stop offset="0.9525" stop-color="#06B6D4"/>
<stop offset="1" stop-color="#06B6D4"/>
</linearGradient>
</defs>
</svg>
