<svg id="Graphic_element" data-name="Graphic element" xmlns="http://www.w3.org/2000/svg" viewBox="0 0 1200 857"><path id="path2230" d="M461.07,724.17c-6.64-12,2.09-27.72,3.08-41.69l-9.57-8.91c-7.92,12-2.09,33.88-19.14,39.93-15.73.33-27.39-13.64-36.85-25.3l-1.43-6.49c2.42-29.7,8.91-57.09,12.32-86.13l-9.24-8.25-4.07,4.84c-6.82,18.15-12.32,36.52-20.46,54-4.4,3.74-11,4.07-16.39,2.75L337.1,625.72c-5.83,6.82-2.75,18.81-13,22.22-20.9,3.08-37-19.8-47.52-35.2H275A1200.24,1200.24,0,0,0,235.68,748c-15.73,12-33.44-.66-47.52-6.49-24-9.24-12.65-38.28-13.31-56.76,3.41-38.61,15.4-73.81,24.64-109.67l-17.27-15.07c-17.05,26-22.22,58.08-37.95,85.47-13.64,5.17-23.87-9.24-33.44-17-6.49,12.32-3.74,31.79-17,41-20.57-.77-36.3-15.07-43.78-32.89C63.64,521.44,99.5,416,154.28,318.16c3.74-3.41,5.83-9.9,11.55-10.56,11.22,3.08,24.64,6.16,30.36,17.38-1,12.32-8.25,21.89-10.89,33.44,3.08,3.41,8.25.33,11.55,2.42L215,374.15c29.7-51.59,57.42-105.6,93.28-155.1,27.39-34.21,55.66-76.23,94.27-96.69,14.74-2.09,25.63,12,32.12,22.88v14L394.3,225.54c6.49,7.15,17.71,12.32,23.21,22.22v8.91c-7.92,16.39-21.89,31.13-25.63,47.85a93.59,93.59,0,0,1,18.81,16.39l2.75-1c15.4-21.12,24.64-46.42,44.11-64.57,17.38-4.73,28.71,9.57,41,19.47,12.65-17.05,21.23-39.27,39.27-52.25,17-2.09,26.95,14.74,37.95,25.3,16.39-28.71,29-60.5,49.17-88.55,9.9-3.41,13-17.38,25.3-9.9,13,7.81,28.71,21.56,26.29,37.62a747.77,747.77,0,0,0-36.85,72.49c1.76,3.08,3.41,7.48,7.48,8.14,18.15-32.45,33.77-65.56,54.67-97,4.4-2.42,9.9-5.17,15.07-3.08,13,7.92,23.54,21.23,27.72,35.2l-2.42,13a726.18,726.18,0,0,0-43.45,100.1,137.51,137.51,0,0,1,18.81,16.39c5.5-4.4,7.48-13.31,14.74-16.39,16.06,6.49,26.95,23.21,33.88,37.95,2.75,7.15-1.76,13.64-4.07,19.47,4.4,4.07,8.91,10.56,14.63,13.31,36.52-79.64,75.13-158.18,125.4-232.32,21.56-11.66,26-37.29,46.86-50.6,17.38,1.32,35.53,14,41.69,31.13-12.32,25-27.72,48.51-39.93,73.81-2.42,8.58,8.91,5.83,12.32,12.32,9.57,12,23.21,25.3,15.4,41.69-17.38,28.71-31.13,58.74-45.1,88.55l22.22,18.15c19.47-30.69,37.29-63.58,57.42-95,5.17-7.81,13.31-13.64,22.88-9.9,14.41,4.4,25,18.48,29.7,32.12,0,8.58-7.48,13.64-9.9,21.23,8.91,7.92,25.63,16.06,23.54,31.13,1.76,3.08-3.08,5.5,1,7.48,4.73-4.84,7.81-12.32,14.74-14,22.88-.66,46.09,10.56,55,32.12l-4.07,12.32c-58.08,83.38-96.36,175.34-124.74,271.37-6.82,9.9-18.48,2.09-27,1.65-14.41-4.73-31.79-15.07-35.2-31.13l.66-17.38c-12.32-7.81-28.71-9.57-36.85-24.64-16.06,6.49-29.7-8.25-41.69-18.81C867.85,587,856.85,608.56,847.28,630a16.5,16.5,0,0,1-18.81,5.83c-10.56-2.42-18.81-10.23-27-18.15-14.41,18.81-21.23,42.35-33.88,62.48-7.92,6.16-18.81.33-27.06-2.42C731,671.92,721.44,665.1,717,654.54c0-20.46,8.91-37.62,11.22-57.42-14.3-7.15-29.37-13.64-42.68-24.64-9.57,12-6.82,30.8-19.47,41-11.55,1-18.81-8.58-28.05-13-10.23,24.31-12,52.25-23.54,76.23-4.07,3.74-11.55,3.41-15.73,1-7.15-4.07-12.65-11.66-18.81-17.38-6.16,9.9-8.58,22.55-11.55,34.54-3.74,4.84-10.23,4.84-15.4,3.41-9.24-3.08-14-12.65-22.22-17.49-5.83,22.22-8.91,45.43-13.31,68-6.82,6.82-17.38,4.73-25.3,1.65C480.54,745,467.89,736.49,461.07,724.17Z" style="fill:#231f20"/></svg>